<svg xmlns="http://www.w3.org/2000/svg" xmlns:xlink="http://www.w3.org/1999/xlink" width="500" zoomAndPan="magnify" viewBox="0 0 375 374.999991" height="500" preserveAspectRatio="xMidYMid meet" version="1.0"><defs><clipPath id="30e025b3ea"><path d="M 98.90625 0 L 275.90625 0 L 275.90625 375 L 98.90625 375 Z M 98.90625 0 " clip-rule="nonzero"/></clipPath></defs><g clip-path="url(#30e025b3ea)"><path fill="#1b2450" d="M 235.214844 62.195312 L 276.09375 62.195312 L 276.09375 0.566406 L 223.898438 0.566406 L 223.898438 0.800781 C 155.269531 3.316406 141.121094 41.757812 139.941406 82.398438 L 139.785156 82.398438 L 139.785156 125.160156 L 98.90625 125.160156 L 98.90625 186.871094 L 139.785156 186.871094 L 139.785156 374.433594 L 213.125 374.433594 L 213.125 186.871094 L 265.71875 186.871094 L 276.09375 125.160156 L 213.128906 125.160156 L 213.128906 86.878906 C 213.128906 73.28125 222.246094 62.195312 235.214844 62.195312 Z M 235.214844 62.195312 " fill-opacity="1" fill-rule="nonzero"/></g></svg>